<svg xmlns="http://www.w3.org/2000/svg" data-name="Layer 1" viewBox="0 0 64 64"><circle cx="32" cy="32" r="27" fill="#7f3f98"/><path fill="#2a292a" d="M48.75,53.16a26.94,26.94,0,0,1-33.5,0L16,50.5A9.12,9.12,0,0,1,24.79,44H39.21A9.12,9.12,0,0,1,48,50.5Z"/><path fill="#be1e2d" d="M39.17,44l-.85,6.66a17.7,17.7,0,0,1-1.84,5.91L35.33,58.8a27.82,27.82,0,0,1-6.66,0l-1.15-2.23a17.7,17.7,0,0,1-1.84-5.91L24.83,44Z"/><path fill="#ffd2b4" d="M36,39v5.76a2,2,0,0,1-1.11,1.8h0a6.46,6.46,0,0,1-5.78,0h0A2,2,0,0,1,28,44.76V39Z"/><path fill="#231f20" d="M36,44v.76a2,2,0,0,1-1.11,1.8,6.48,6.48,0,0,1-5.78,0A2,2,0,0,1,28,44.76V44H26v.76a4,4,0,0,0,2.22,3.58,8.39,8.39,0,0,0,7.56,0A4,4,0,0,0,38,44.76V44Z" opacity=".1"/><path fill="#ffd2b4" d="M32,15.21C43.45,15.21,42.47,26,42.47,26c1.68-.17,3,.49,3,2.86s-1,2.86-2.35,3a.29.29,0,0,0-.27.27c-.39,3.69-3,6.39-5.58,8.2a9.16,9.16,0,0,1-10.56,0c-2.57-1.81-5.19-4.52-5.58-8.2a.29.29,0,0,0-.27-.27c-1.31-.13-2.35-.63-2.35-3s1.27-3,2.94-2.86C21.47,26,20.54,15.21,32,15.21Z"/><path fill="#262234" d="M36,41.08v2a9.16,9.16,0,0,1-8,0v-2a9.16,9.16,0,0,0,8,0Z" opacity=".1"/><circle cx="28.04" cy="27.04" r="1.7" fill="#2a292a"/><circle cx="35.96" cy="27.04" r="1.7" fill="#2a292a"/><path fill="#611c24" d="M35.87,32.53a1,1,0,0,1,1,1.25,5,5,0,0,1-9.68,0,1,1,0,0,1,1-1.25Z"/><path fill="#be1e2d" d="M34.42,36.91a5,5,0,0,1-4.84,0c.2-1.23,1.21-1.57,2.42-1.57S34.22,35.68,34.42,36.91Z"/><path fill="#fff" d="M34.87,32.53v.95a.37.37,0,0,1-.36.37h-5a.37.37,0,0,1-.36-.37v-.95Z"/><path fill="#2a292a" d="M41.82,28.58a10.61,10.61,0,0,1-2.38,5.12l-.17-1a3.46,3.46,0,0,0-3.41-2.85H28.14a3.46,3.46,0,0,0-3.41,2.85l-.18,1a10.61,10.61,0,0,1-2.39-5.12.76.76,0,0,0-.41-.62l-1-.48v5.68a6.21,6.21,0,0,0,.9,3.24A20.51,20.51,0,0,0,24,39.5a8.8,8.8,0,0,0,1.46,1.28,10,10,0,0,0,5.77,1.73h1.48a10,10,0,0,0,5.77-1.73A8.8,8.8,0,0,0,40,39.5a20.51,20.51,0,0,0,2.33-3.11,6.21,6.21,0,0,0,.9-3.24V27.47l-1,.48A.76.76,0,0,0,41.82,28.58ZM36,37.38a3,3,0,0,1-3,.85,3.27,3.27,0,0,0-2,0,3,3,0,0,1-3-.85,26.43,26.43,0,0,1-2.23-2.18l.4-2.21a2,2,0,0,1,1.93-1.61h7.71A2,2,0,0,1,37.79,33l.4,2.2A26.4,26.4,0,0,1,36,37.38Z"/><path fill="#2a292a" d="M43.5,20.2a10.52,10.52,0,0,0-.44-2.44,10.94,10.94,0,0,0,.18-4.11.75.75,0,0,0-1-.54c-.24.09-.5.17-.76.25a4.69,4.69,0,0,0,0-1.13.76.76,0,0,0-1-.6,30.85,30.85,0,0,1-8,1.41H32c-6.09,0-11,.31-11.49,7.16a30.27,30.27,0,0,0,.14,5.53A21.51,21.51,0,0,0,21,28.47a.6.6,0,0,0,1.19,0,19.56,19.56,0,0,1,2.33-7.4A20.38,20.38,0,0,0,32,22.35a20.4,20.4,0,0,0,7.52-1.23,19.56,19.56,0,0,1,2.33,7.4.6.6,0,0,0,1.19,0A19.15,19.15,0,0,0,43.32,26,30.76,30.76,0,0,0,43.5,20.2Z"/></svg>